<svg width="24" height="24" viewBox="0 0 24 24" fill="none" xmlns="http://www.w3.org/2000/svg">
<rect x="0.75" y="0.75" width="22.5" height="22.5" rx="2.25" fill="#222222" stroke="#222222" stroke-width="1.5"/>
<path fill-rule="evenodd" clip-rule="evenodd" d="M18.0104 6.48959C17.6199 6.09907 16.9867 6.09907 16.5962 6.48959L12 11.0858L7.40381 6.48959C7.01328 6.09907 6.38012 6.09907 5.98959 6.48959C5.59907 6.88012 5.59907 7.51328 5.98959 7.90381L10.5858 12.5L5.98959 17.0962C5.59907 17.4867 5.59907 18.1199 5.98959 18.5104C6.38012 18.9009 7.01328 18.9009 7.40381 18.5104L12 13.9142L16.5962 18.5104C16.9867 18.9009 17.6199 18.9009 18.0104 18.5104C18.4009 18.1199 18.4009 17.4867 18.0104 17.0962L13.4142 12.5L18.0104 7.90381C18.4009 7.51328 18.4009 6.88012 18.0104 6.48959Z" fill="white"/>
</svg>
